<svg width="20" height="20" viewBox="0 0 20 20" fill="none" xmlns="http://www.w3.org/2000/svg">
<path d="M6.34032 9.9996C6.45187 10.0828 6.52533 10.1247 6.58282 10.1823C9.26851 12.865 11.9522 15.5498 14.6384 18.2319C14.9144 18.5074 15.0609 18.8182 14.9759 19.2133C14.8187 19.944 13.9503 20.2467 13.3748 19.7703C13.3114 19.718 13.2546 19.6577 13.1964 19.5995C10.2643 16.6683 7.33227 13.737 4.40026 10.8056C3.86693 10.2723 3.8665 9.72691 4.39947 9.19413C7.34603 6.24798 10.2938 3.30326 13.2376 0.354475C13.5297 0.0618892 13.8633 -0.0676638 14.2635 0.0346249C14.9586 0.212106 15.2296 1.0549 14.7787 1.61449C14.7229 1.68363 14.6575 1.74545 14.5946 1.80848C11.9249 4.47797 9.25507 7.14754 6.58404 9.81576C6.52626 9.87345 6.45276 9.91574 6.34044 9.9996H6.34032Z" fill="black"/>
</svg>
