<svg width="18" height="18" viewBox="0 0 18 18" fill="" xmlns="http://www.w3.org/2000/svg">
<path fill-rule="evenodd" clip-rule="evenodd" d="M14.1601 0.741192L15.1424 2.54519H7.81296L12.0317 0.17853C12.778 -0.202379 13.686 0.0451154 14.1601 0.741192ZM17.7449 12.6905H14.9388C13.9431 12.6905 13.1359 11.8706 13.1359 10.8594C13.1359 9.84815 13.9431 9.02833 14.9388 9.02833H17.743C17.8287 9.02833 17.9143 9.03413 17.9962 9.04573V5.15543C17.9124 4.31241 17.2366 3.65114 16.4008 3.61633H1.6715C0.750079 3.61633 0.00190375 4.38202 0 5.32752V16.5266C0.0970915 17.2884 0.681544 17.8936 1.4221 18H16.6864C17.3489 17.8646 17.8705 17.3271 18 16.6446V12.6731C17.9143 12.6847 17.8306 12.6905 17.7449 12.6905ZM14.6151 10.8343C14.6151 11.0497 14.6994 11.2563 14.8493 11.4086C14.9993 11.5609 15.2026 11.6464 15.4147 11.6464C15.6267 11.6464 15.8301 11.5609 15.9801 11.4086C16.13 11.2563 16.2143 11.0497 16.2143 10.8343C16.2143 10.619 16.13 10.4124 15.9801 10.2601C15.8301 10.1078 15.6267 10.0223 15.4147 10.0223C15.2026 10.0223 14.9993 10.1078 14.8493 10.2601C14.6994 10.4124 14.6151 10.619 14.6151 10.8343Z" fill=""/>
</svg>
