<svg width="20" height="20" viewBox="0 0 20 20" fill="none" xmlns="http://www.w3.org/2000/svg">
<path d="M13.6597 9.9996C13.5481 10.0828 13.4747 10.1247 13.4172 10.1823C10.7315 12.865 8.04781 15.5498 5.36159 18.2319C5.08558 18.5074 4.93908 18.8182 5.02408 19.2133C5.18129 19.944 6.04966 20.2467 6.62524 19.7703C6.68857 19.718 6.74541 19.6577 6.8036 19.5995C9.7357 16.6683 12.6677 13.737 15.5997 10.8056C16.1331 10.2723 16.1335 9.72691 15.6005 9.19413C12.654 6.24798 9.70622 3.30326 6.76236 0.354475C6.47032 0.0618892 6.13675 -0.0676638 5.73654 0.0346249C5.04144 0.212106 4.77042 1.0549 5.22135 1.61449C5.27711 1.68363 5.34248 1.74545 5.40544 1.80848C8.0751 4.47797 10.7449 7.14754 13.416 9.81576C13.4737 9.87345 13.5472 9.91574 13.6596 9.9996H13.6597Z" fill="black"/>
</svg>
