<svg width="18" height="18" viewBox="0 0 18 18" fill="none" xmlns="http://www.w3.org/2000/svg">
<path fill-rule="evenodd" clip-rule="evenodd" d="M15.7673 17.8463C15.8998 17.9442 16.0595 17.9964 16.223 17.9952C16.4285 17.9946 16.6254 17.9111 16.771 17.763C16.9165 17.6148 16.9988 17.4139 17 17.2041V0.7911C17 0.581287 16.9184 0.380068 16.7731 0.231708C16.6278 0.0833478 16.4308 0 16.2253 0H1.77471C1.56924 0 1.37219 0.0833478 1.22691 0.231708C1.08162 0.380068 1 0.581287 1 0.7911V17.2181C1.00091 17.3621 1.0402 17.5032 1.11365 17.6261C1.18711 17.7491 1.29197 17.8493 1.41698 17.9161C1.54472 17.9817 1.68785 18.0097 1.83031 17.997C1.97277 17.9843 2.10895 17.9313 2.22358 17.844L3.05762 17.2287C6.58769 14.6246 11.4028 14.6251 14.9323 17.23L15.7673 17.8463ZM5.20106 4.4151C5.07295 4.28775 5.00067 4.11494 5.00005 3.93453C5.00005 3.75373 5.07206 3.58032 5.20023 3.45247C5.32841 3.32462 5.50225 3.25279 5.68352 3.25279H12.5649C12.739 3.26295 12.9025 3.33908 13.0222 3.46559C13.1418 3.59211 13.2085 3.75945 13.2085 3.93337C13.2085 4.10729 13.1418 4.27463 13.0222 4.40115C12.9025 4.52767 12.739 4.60379 12.5649 4.61395H5.68352C5.50266 4.61395 5.32917 4.54244 5.20106 4.4151ZM5.20023 8.78859C5.07206 8.66074 5.00005 8.48733 5.00005 8.30653C5.00067 8.12612 5.07295 7.95331 5.20106 7.82596C5.32917 7.69862 5.50266 7.62711 5.68352 7.62711H12.5649C12.739 7.63727 12.9025 7.71339 13.0222 7.83991C13.1418 7.96643 13.2085 8.13377 13.2085 8.30769C13.2085 8.48161 13.1418 8.64895 13.0222 8.77547C12.9025 8.90198 12.739 8.97811 12.5649 8.98827H5.68352C5.50225 8.98827 5.32841 8.91644 5.20023 8.78859Z" fill="#2950EB"/>
</svg>
